<svg version="1.1" fill="#fff" xmlns="http://www.w3.org/2000/svg" viewBox="0 0 32 32">
    <path d="M24.492 3.84h-15.705c-2.727 0-4.947 2.219-4.947 4.947v15.705c0 2.729 2.22 4.947 4.947 4.947h15.705c2.727 0 4.947-2.219 4.947-4.947v-15.705c0-2.729-2.22-4.947-4.947-4.947zM25.912 6.792l0.566-0.003v4.339l-4.326 0.014-0.015-4.339zM12.987 14.012c0.819-1.135 2.149-1.878 3.653-1.878s2.834 0.744 3.653 1.878c0.534 0.741 0.853 1.647 0.853 2.628 0 2.484-2.021 4.505-4.506 4.505-2.484 0-4.505-2.021-4.505-4.505 0-0.981 0.319-1.887 0.852-2.628zM26.946 24.492c0 1.353-1.1 2.453-2.453 2.453h-15.705c-1.353 0-2.453-1.1-2.453-2.453v-10.481h3.823c-0.331 0.813-0.516 1.699-0.516 2.628 0 3.859 3.14 7.001 6.999 7.001 3.861 0 7.001-3.141 7.001-7.001 0-0.929-0.188-1.815-0.516-2.628h3.822z"></path>
</svg>
