<svg version="1.1" fill="#fff" xmlns="http://www.w3.org/2000/svg" viewBox="0 0 32 32">
    <path d="M5.12 12.664c0 2.782 1.052 5.257 3.307 6.18 0.37 0.151 0.701 0.005 0.808-0.405 0.075-0.284 0.251-1 0.329-1.298 0.108-0.405 0.067-0.547-0.232-0.901-0.649-0.769-1.065-1.763-1.065-3.173 0-4.087 3.052-7.747 7.95-7.747 4.336 0 6.718 2.654 6.718 6.199 0 4.664-2.061 8.601-5.118 8.601-1.69 0-2.954-1.4-2.548-3.116 0.485-2.049 1.425-4.261 1.425-5.74 0-1.324-0.71-2.428-2.177-2.428-1.726 0-3.114 1.789-3.114 4.186 0 1.528 0.515 2.559 0.515 2.559s-1.767 7.501-2.077 8.815c-0.617 2.616-0.092 5.823-0.048 6.146 0.026 0.192 0.271 0.238 0.383 0.093 0.16-0.209 2.215-2.752 2.916-5.293 0.197-0.72 1.135-4.446 1.135-4.446 0.562 1.072 2.201 2.015 3.944 2.015 5.191 0 8.712-4.74 8.712-11.085 0-4.798-4.056-9.266-10.221-9.266-7.67 0-11.539 5.51-11.539 10.104z"></path>
</svg>
