<svg version="1.1" fill="#fff" xmlns="http://www.w3.org/2000/svg" viewBox="0 0 32 32">
    <path d="M26.273 8.763c1.139-0.719 2.013-1.859 2.423-3.217-1.067 0.667-2.245 1.15-3.503 1.411-1.003-1.132-2.438-1.837-4.025-1.837-3.045 0-5.513 2.604-5.513 5.816 0 0.456 0.046 0.9 0.14 1.325-4.582-0.243-8.644-2.556-11.366-6.077-0.475 0.862-0.746 1.86-0.746 2.925 0 2.017 0.973 3.797 2.453 4.842-0.904-0.030-1.754-0.295-2.499-0.727v0.072c0 2.819 1.9 5.17 4.426 5.703-0.464 0.136-0.95 0.205-1.455 0.205-0.355 0-0.702-0.035-1.037-0.103 0.701 2.31 2.737 3.994 5.151 4.039-1.889 1.561-4.266 2.489-6.849 2.489-0.445 0-0.885-0.025-1.316-0.080 2.441 1.649 5.339 2.613 8.454 2.613 10.145 0 15.689-8.863 15.689-16.549 0-0.253-0.003-0.504-0.014-0.752 1.078-0.82 2.015-1.845 2.752-3.012-0.989 0.463-2.053 0.775-3.167 0.915z"></path>
</svg>
