<svg version="1.1" fill="#fff" xmlns="http://www.w3.org/2000/svg" viewBox="0 0 32 32">
    <path d="M25.358 5.143c2.582 0.068 3.873 1.533 3.886 4.401 0 0.188-0.006 0.384-0.017 0.585-0.114 2.431-1.923 5.742-5.434 9.933-3.621 4.39-6.693 6.588-9.216 6.6-1.569 0-2.872-1.344-3.918-4.033l-1.098-3.686-1.085-3.681c-0.8-2.668-1.655-3.999-2.568-3.999-0.2 0-0.892 0.389-2.081 1.165l-1.267-1.499 1.966-1.633 1.934-1.617c1.732-1.388 3.049-2.138 3.953-2.249 0.12-0.013 0.241-0.017 0.364-0.017 1.855 0 3.013 1.332 3.468 3.999 0.253 1.521 0.463 2.757 0.634 3.707 0.165 0.952 0.303 1.615 0.413 1.993 0.613 2.522 1.274 3.789 1.984 3.799 0.545 0 1.385-0.822 2.519-2.465 1.108-1.688 1.705-2.939 1.782-3.753 0.024-0.165 0.033-0.32 0.033-0.463 0-1.102-0.607-1.651-1.815-1.651-0.613 0-1.267 0.131-1.967 0.383 1.254-3.867 3.666-5.804 7.232-5.816z"></path>
</svg>
