<svg version="1.1" fill="#fff" xmlns="http://www.w3.org/2000/svg" viewBox="0 0 32 32">
    <path d="M13.714 28.952c-7.153 0-12.952-5.799-12.952-12.952s5.799-12.952 12.952-12.952v0c7.153 0 12.952 5.799 12.952 12.952s-5.799 12.952-12.952 12.952v0zM20.724 17.067c0.256-0.126 0.43-0.386 0.43-0.686s-0.173-0.559-0.425-0.684l-0.004-0.002-10.514-5.257c-0.091-0.041-0.196-0.065-0.308-0.065-0.421 0-0.762 0.341-0.762 0.762 0 0.023 0.001 0.045 0.003 0.068l-0-0.003v10.438c0.007 0.415 0.345 0.749 0.762 0.749 0.11 0 0.215-0.023 0.31-0.066l-0.005 0.002z"></path>
</svg>
