<?xml version="1.0" standalone="no"?>
<!DOCTYPE svg PUBLIC "-//W3C//DTD SVG 20010904//EN"
 "http://www.w3.org/TR/2001/REC-SVG-20010904/DTD/svg10.dtd">
<svg version="1.0" xmlns="http://www.w3.org/2000/svg"
 width="512.000000pt" height="512.000000pt" viewBox="0 0 512.000000 512.000000"
 preserveAspectRatio="xMidYMid meet">

<g transform="translate(0.000000,512.000000) scale(0.100000,-0.100000)"
fill="#000000" stroke="none">
<path d="M2452 5102 c-61 -22 -74 -33 -260 -209 -113 -106 -147 -133 -177
-139 -24 -4 -109 3 -233 21 -211 30 -262 29 -339 -5 -62 -27 -137 -101 -162
-160 -11 -26 -36 -136 -55 -244 -20 -108 -40 -204 -45 -215 -19 -35 -69 -69
-236 -156 -105 -56 -181 -103 -207 -129 -81 -81 -115 -204 -84 -310 9 -31 55
-134 101 -227 62 -124 85 -181 85 -209 0 -28 -23 -85 -85 -209 -46 -93 -92
-196 -101 -227 -31 -106 4 -233 85 -312 24 -23 108 -75 206 -126 90 -48 168
-92 171 -98 4 -6 -246 -263 -555 -572 -604 -605 -588 -585 -538 -640 19 -22
65 -35 371 -106 192 -44 351 -81 353 -83 2 -2 39 -161 83 -353 71 -306 84
-352 106 -371 55 -50 30 -72 711 609 l632 632 51 -48 c75 -70 127 -91 230 -91
103 0 155 21 230 91 l51 48 632 -632 c682 -681 656 -659 711 -609 23 19 35 62
106 371 44 193 82 351 83 353 2 1 160 39 353 83 309 71 352 83 372 106 49 55
66 35 -539 640 -309 309 -559 566 -555 572 3 6 81 50 171 98 105 55 181 102
207 128 81 81 115 204 84 310 -9 31 -55 134 -101 227 -62 124 -85 181 -85 209
0 28 23 85 85 209 46 93 92 196 101 227 31 106 -3 229 -84 310 -26 26 -103 73
-208 129 -92 49 -182 101 -200 118 -40 35 -46 52 -84 276 -17 95 -40 195 -51
221 -25 59 -100 133 -161 160 -78 34 -124 35 -344 4 -187 -26 -208 -27 -244
-14 -26 10 -92 66 -195 163 -104 99 -172 156 -203 169 -66 30 -172 34 -240 10z
m173 -156 c19 -8 98 -77 177 -154 219 -212 245 -221 542 -178 216 32 230 32
281 3 61 -35 78 -77 115 -292 36 -212 62 -279 131 -338 20 -18 113 -72 205
-121 93 -49 178 -96 188 -105 26 -22 55 -89 56 -126 0 -18 -36 -105 -90 -215
-50 -102 -96 -211 -102 -243 -18 -85 -1 -144 97 -345 47 -96 88 -192 91 -212
8 -48 -23 -119 -62 -147 -16 -11 -101 -58 -189 -104 -179 -94 -249 -152 -277
-229 -10 -25 -33 -132 -52 -238 -20 -114 -42 -206 -53 -225 -23 -39 -86 -77
-129 -77 -18 0 -112 12 -210 26 -298 43 -320 36 -538 -175 -150 -144 -189
-171 -246 -171 -57 0 -94 26 -245 171 -220 211 -242 218 -539 175 -216 -31
-230 -32 -280 -3 -62 35 -76 70 -113 281 -38 216 -67 292 -132 348 -22 18
-110 71 -197 117 -88 46 -172 93 -188 104 -33 23 -65 88 -66 132 0 18 36 105
90 215 103 211 120 272 102 356 -6 30 -52 139 -102 242 -53 111 -90 199 -90
217 1 44 33 109 66 132 16 11 100 57 187 103 261 138 275 158 330 463 21 119
43 210 54 230 23 39 86 77 129 77 18 0 112 -12 210 -26 296 -43 322 -35 542
178 80 77 159 146 176 154 41 17 88 17 131 0z m-1392 -3111 c15 -85 36 -177
47 -204 26 -60 100 -134 162 -161 78 -34 124 -35 342 -4 241 33 255 31 331
-46 l50 -50 -565 -565 c-310 -310 -566 -563 -568 -561 -2 2 -34 136 -71 298
-38 162 -73 303 -79 315 -16 29 -35 35 -337 103 -148 34 -278 64 -289 67 -15
4 81 105 460 484 263 263 481 479 485 479 3 0 17 -70 32 -155z m3171 -324
c379 -379 475 -480 460 -484 -11 -3 -140 -33 -289 -67 -303 -69 -321 -74 -337
-103 -6 -12 -41 -153 -79 -315 -37 -162 -69 -296 -71 -298 -2 -2 -258 251
-568 561 l-565 565 50 50 c76 77 90 79 331 46 218 -31 264 -30 342 4 62 27
136 101 162 161 11 27 32 119 47 204 15 85 29 155 32 155 4 0 222 -216 485
-479z"/>
<path d="M2368 4304 c-112 -17 -248 -63 -361 -121 -318 -165 -546 -465 -623
-823 -26 -118 -26 -362 0 -480 103 -477 462 -833 946 -937 112 -24 362 -23
468 1 372 83 669 313 836 644 84 168 121 329 121 532 0 157 -12 236 -56 372
-46 142 -139 309 -223 401 -27 30 -41 37 -70 37 -46 0 -76 -29 -76 -72 0 -25
15 -53 59 -111 319 -426 268 -1013 -119 -1380 -343 -324 -853 -375 -1259 -126
-149 92 -301 260 -383 424 -74 146 -114 346 -104 512 23 373 243 709 572 872
319 158 686 145 995 -35 85 -50 105 -53 143 -23 20 16 26 29 26 59 0 49 -24
70 -157 138 -226 116 -481 156 -735 116z"/>
<path d="M3011 3483 c-21 -21 -168 -174 -326 -341 l-287 -303 -41 48 c-209
239 -280 313 -304 319 -53 14 -104 -41 -90 -97 9 -35 384 -458 412 -465 13 -3
33 -3 44 1 11 3 148 140 303 303 155 163 317 334 360 378 88 92 98 124 53 169
-36 37 -77 33 -124 -12z"/>
</g>
</svg>
