<svg version="1.1" xmlns="http://www.w3.org/2000/svg" viewBox="0 0 50 30">
    <g fill="none" fill-rule="evenodd">
        <path fill="#FFF" stroke="#DBDBDB" d="M47 .5A2.5 2.5 0 0149.5 3h0v24a2.5 2.5 0 01-2.5 2.5h0H3A2.5 2.5 0 01.5 27h0V3A2.5 2.5 0 013 .5h0z"></path>
        <path d="M7 0h36.95v29.85H7z"></path>
        <path fill="#231F20" fill-rule="nonzero" d="M16.15 26.1V24.6a.88.88 0 00-.26-.68.9.9 0 00-.69-.26.94.94 0 00-.84.42.89.89 0 00-.8-.42.8.8 0 00-.7.35v-.3h-.53v2.38h.53v-1.3a.55.55 0 01.15-.46.57.57 0 01.44-.18c.35 0 .53.23.53.63v1.32h.52v-1.32a.55.55 0 01.15-.45.57.57 0 01.44-.18c.36 0 .53.23.53.63v1.32l.53-.01zm7.82-2.37h-.86V23h-.53v.72h-.48v.47h.49v1.09c0 .55.22.88.84.88.23 0 .45-.07.65-.19l-.15-.44a.98.98 0 01-.46.14c-.26 0-.35-.16-.35-.4V24.2h.85v-.47zm4.46-.06a.7.7 0 00-.63.34v-.28h-.52v2.37h.53v-1.33c0-.4.17-.61.5-.61.11 0 .22.02.33.06l.16-.5a1.12 1.12 0 00-.37-.06zm-6.75.25c-.3-.18-.63-.26-.98-.25-.6 0-1 .28-1 .76 0 .38.29.62.83.7l.25.03c.28.04.42.11.42.25 0 .18-.19.29-.55.29a1.3 1.3 0 01-.8-.25l-.25.4c.3.21.67.32 1.04.3.7 0 1.1-.32 1.1-.77s-.32-.63-.84-.7l-.25-.04c-.23-.03-.41-.08-.41-.23 0-.16.17-.28.46-.28.26 0 .52.07.75.2l.23-.41zm14.03-.25c-.26-.01-.5.12-.64.34v-.28h-.52v2.37h.53v-1.33c0-.4.17-.61.5-.61.11 0 .22.02.33.06l.16-.5a1.12 1.12 0 00-.37-.06zm-6.75 1.24a1.21 1.21 0 001.28 1.24c.32.01.63-.09.87-.29l-.25-.41c-.18.13-.4.2-.63.21a.77.77 0 01-.71-.76c0-.4.3-.72.7-.76.24 0 .46.08.64.22l.25-.42c-.24-.2-.55-.3-.86-.28-.35-.02-.68.1-.92.34-.25.23-.38.56-.37.9zm4.9 0v-1.18h-.52V24a.91.91 0 00-.76-.34c-.69 0-1.25.55-1.25 1.24 0 .68.56 1.24 1.26 1.24.29 0 .57-.12.75-.35v.29h.52V24.9zm-1.94 0a.72.72 0 01.75-.68c.4.02.7.34.7.73 0 .4-.33.7-.72.7-.2 0-.4-.07-.54-.22a.7.7 0 01-.2-.53zm-6.32-1.24c-.7 0-1.25.57-1.24 1.25 0 .69.58 1.24 1.27 1.23.37.02.72-.1 1-.32l-.25-.39c-.2.16-.44.25-.7.25a.67.67 0 01-.72-.58h1.79v-.2c0-.74-.47-1.24-1.14-1.24h-.01zm0 .46a.58.58 0 01.6.58h-1.25c.02-.34.3-.6.64-.58h.01zm13.11.78v-2.14h-.5v1.24a.92.92 0 00-.75-.34c-.7 0-1.26.55-1.26 1.24 0 .68.56 1.24 1.26 1.24.29 0 .57-.12.75-.35v.29h.5V24.9zm.88.84c.03 0 .06 0 .1.02a.24.24 0 01.12.12.23.23 0 01-.05.26.25.25 0 01-.17.07.25.25 0 01-.23-.14.24.24 0 010-.19.23.23 0 01.05-.07.24.24 0 01.18-.07zm0 .42a.18.18 0 00.13-.05.18.18 0 000-.25.23.23 0 00-.06-.04.18.18 0 00-.07-.01l-.07.01a.16.16 0 00-.06.04.18.18 0 000 .25.2.2 0 00.14.05h-.01zm.01-.3a.1.1 0 01.07.03l.02.05c0 .01 0 .03-.02.04a.1.1 0 01-.05.03l.07.08h-.05l-.07-.08h-.02v.08h-.05v-.22h.1zm-.05.05v.06h.08v-.02-.03h-.03l-.05-.01zm-2.77-1a.72.72 0 01.75-.68c.4.01.7.34.7.73 0 .39-.33.7-.72.7-.2 0-.4-.08-.53-.22a.7.7 0 01-.2-.54zm-17.68 0v-1.2h-.52v.3a.92.92 0 00-.76-.35c-.7 0-1.25.55-1.25 1.24 0 .68.56 1.24 1.25 1.24.3 0 .58-.12.76-.35v.29h.52V24.9zm-1.95 0a.72.72 0 01.76-.68c.4.01.7.34.7.73 0 .39-.33.7-.73.7-.2 0-.4-.08-.53-.22a.7.7 0 01-.2-.54z"></path>
        <g fill-rule="nonzero">
            <path fill="#FF5F00" d="M21.51 5.67h7.93V19.7h-7.93z"></path>
            <path fill="#EB001B" d="M22.01 12.68a8.87 8.87 0 013.46-7.02 9.16 9.16 0 00-12.25.97 8.83 8.83 0 000 12.1 9.16 9.16 0 0012.25.97 8.86 8.86 0 01-3.46-7.02z"></path>
            <path fill="#F79E1B" d="M40.14 12.68a8.91 8.91 0 01-5.1 8.03 9.17 9.17 0 01-9.56-1 8.88 8.88 0 003.46-7.03 8.88 8.88 0 00-3.47-7.01 9.17 9.17 0 019.57-1.02 8.91 8.91 0 015.1 8.03zm-.81 5.89v-.58h.15v-.12h-.39v.12h.17v.58h.07zm.76 0v-.7h-.12l-.14.5-.14-.5h-.1v.7h.08v-.53l.13.46h.1l.12-.46v.53h.07z"></path>
        </g>
    </g>
</svg>
