<svg version="1.1" xmlns="http://www.w3.org/2000/svg" viewBox="0 0 50 30">
    <g fill="none" fill-rule="evenodd">
        <path fill="#FFF" stroke="#DBDBDB" d="M47 .5A2.5 2.5 0 0149.5 3h0v24a2.5 2.5 0 01-2.5 2.5h0H3A2.5 2.5 0 01.5 27h0V3A2.5 2.5 0 013 .5h0z"></path>
        <path fill="#0079C1" d="M31.08 13.13c-.15.99-.9.99-1.61.99h-.41l.29-1.84c.01-.11.1-.2.22-.2h.19c.49 0 .95 0 1.18.29.15.17.19.42.14.76m-.32-2.57h-2.7a.38.38 0 00-.37.32l-1.1 7.05c-.02.14.08.26.22.26h1.4c.12 0 .23-.1.25-.22l.31-2a.38.38 0 01.37-.32H30c1.78 0 2.81-.88 3.08-2.62.12-.75 0-1.35-.34-1.77-.39-.46-1.07-.7-1.98-.7"></path>
        <path fill="#00457C" d="M11.77 13.13c-.15.99-.9.99-1.6.99h-.42l.29-1.84c.02-.11.11-.2.22-.2h.19c.49 0 .95 0 1.19.29.14.17.18.42.13.76m-.31-2.57H8.75a.38.38 0 00-.37.32l-1.1 7.05c-.02.14.09.26.23.26H8.8c.18 0 .34-.14.37-.32l.3-1.9a.38.38 0 01.37-.32h.85c1.79 0 2.82-.88 3.08-2.62.12-.75 0-1.35-.34-1.77-.39-.46-1.07-.7-1.97-.7m6.28 5.1a1.45 1.45 0 01-1.46 1.26c-.38 0-.68-.13-.87-.36-.2-.23-.27-.56-.2-.92.11-.75.7-1.27 1.45-1.27.36 0 .66.13.86.36.2.24.28.57.22.93m1.8-2.56h-1.29c-.11 0-.2.08-.22.2l-.06.36-.09-.13c-.28-.41-.9-.55-1.53-.55a3 3 0 00-2.9 2.64c-.12.77.06 1.51.49 2.02.4.48.96.67 1.63.67 1.16 0 1.8-.75 1.8-.75l-.06.37c-.02.14.08.26.22.26h1.17c.18 0 .34-.13.37-.32l.7-4.5a.23.23 0 00-.22-.27"></path>
        <path fill="#0079C1" d="M37.05 15.66a1.45 1.45 0 01-1.46 1.26c-.38 0-.68-.13-.87-.36-.2-.23-.27-.56-.2-.92.1-.75.7-1.27 1.44-1.27.37 0 .67.13.87.36.2.24.28.57.22.93m1.8-2.56h-1.29c-.11 0-.2.08-.22.2l-.06.36-.09-.13c-.28-.41-.9-.55-1.53-.55a3 3 0 00-2.9 2.64c-.12.77.06 1.51.49 2.02.4.48.96.67 1.63.67 1.15 0 1.8-.75 1.8-.75l-.06.37c-.03.14.08.26.22.26h1.17c.18 0 .34-.13.37-.32l.7-4.5a.23.23 0 00-.22-.27"></path>
        <path fill="#00457C" d="M26.45 13.1h-1.3a.37.37 0 00-.31.17l-1.8 2.68-.76-2.58a.38.38 0 00-.36-.27h-1.28a.23.23 0 00-.22.3l1.44 4.28-1.35 1.93c-.1.15 0 .36.18.36H22c.13 0 .24-.06.32-.16l4.33-6.35c.1-.15 0-.36-.19-.36"></path>
        <path fill="#0079C1" d="M40.38 10.75l-1.1 7.18c-.03.14.08.26.22.26h1.11c.19 0 .35-.14.37-.32l1.1-7.05a.23.23 0 00-.22-.26H40.6c-.11 0-.21.08-.23.2"></path>
    </g>
</svg>
