<svg version="1.1" xmlns="http://www.w3.org/2000/svg" viewBox="0 0 50 30">
    <g fill="none" fill-rule="evenodd">
        <path fill="#FFF" stroke="#DBDBDB" d="M47 .5A2.5 2.5 0 0149.5 3h0v24a2.5 2.5 0 01-2.5 2.5h0H3A2.5 2.5 0 01.5 27h0V3A2.5 2.5 0 013 .5h0z"></path>
        <path fill="#26337A" d="M18.82 20.73l1.84-11.45h2.93l-1.83 11.45h-2.94M32.4 9.57a7.21 7.21 0 00-2.63-.48c-2.9 0-4.94 1.55-4.96 3.77-.02 1.65 1.46 2.56 2.57 3.11 1.14.56 1.53.92 1.52 1.42 0 .77-.91 1.12-1.75 1.12-1.18 0-1.8-.18-2.77-.6l-.37-.18-.41 2.56c.68.32 1.95.6 3.26.6 3.09 0 5.09-1.53 5.11-3.9.01-1.3-.77-2.3-2.46-3.11-1.03-.53-1.66-.88-1.65-1.42 0-.48.53-.99 1.68-.99a5.1 5.1 0 012.2.44l.26.13.4-2.47m3.9 7.1l1.17-3.2.4-1.09.19.99.68 3.3H36.3zm3.62-7.37h-2.27c-.7 0-1.23.2-1.53.95l-4.36 10.48h3.08l.62-1.72h3.75c.1.4.36 1.72.36 1.72h2.72L39.92 9.3zm-23.56 0l-2.87 7.8-.3-1.59a8.77 8.77 0 00-4.07-4.8l2.63 10h3.1L19.47 9.3h-3.1"></path>
        <path fill="#EC982D" d="M10.83 9.29H6.1l-.04.23c3.68.95 6.12 3.24 7.13 5.99l-1.03-5.26c-.18-.72-.7-.94-1.33-.97"></path>
    </g>
</svg>
